<?xml version="1.0" standalone="no"?>
<!DOCTYPE svg PUBLIC "-//W3C//DTD SVG 20010904//EN"
 "http://www.w3.org/TR/2001/REC-SVG-20010904/DTD/svg10.dtd">
<svg version="1.0" xmlns="http://www.w3.org/2000/svg"
 width="700.000000pt" height="700.000000pt" viewBox="0 0 700.000000 700.000000"
 preserveAspectRatio="xMidYMid meet">
<metadata>
Created by potrace 1.14, written by Peter Selinger 2001-2017
</metadata>
<g transform="translate(0.000000,700.000000) scale(0.100000,-0.100000)"
fill="#000000" stroke="none">
<path d="M3668 6578 c-405 -403 -460 -461 -631 -668 -62 -75 -129 -150 -151
-168 -83 -69 -229 -80 -376 -27 -81 29 -242 105 -303 142 -21 13 -41 21 -46
19 -4 -3 -6 -83 -3 -178 8 -268 8 -1406 -1 -1563 -7 -131 -19 -233 -32 -275
-5 -17 -12 -14 -65 20 -57 39 -272 148 -400 204 -174 77 -463 197 -466 194 -1
-2 11 -43 28 -92 56 -169 49 -326 -22 -434 -52 -80 -116 -133 -223 -185 -188
-91 -385 -123 -739 -121 -104 1 -188 0 -188 -1 0 -3 137 -207 148 -220 24 -30
363 -538 387 -580 97 -174 116 -230 96 -296 -15 -50 -65 -118 -118 -161 -44
-36 -173 -98 -255 -124 -32 -10 -58 -23 -58 -29 0 -18 88 -62 170 -84 74 -20
252 -53 360 -66 96 -12 114 -14 170 -19 30 -3 75 -8 100 -11 25 -2 79 -7 120
-10 41 -3 95 -7 120 -9 25 -3 99 -7 165 -11 66 -3 161 -8 210 -11 50 -2 138
-6 196 -8 131 -5 183 -25 228 -87 65 -89 72 -198 25 -396 -33 -142 -84 -304
-110 -356 -9 -16 -13 -31 -11 -34 3 -2 23 5 45 16 54 28 232 98 317 126 245
80 368 107 592 131 68 7 65 9 78 -71 23 -138 100 -392 185 -605 81 -206 202
-469 217 -475 31 -11 123 -17 167 -11 57 9 142 87 152 142 11 58 -1 126 -29
169 -90 139 -229 424 -335 690 -22 55 -43 109 -46 120 -6 21 -4 41 4 39 3 -1
38 -4 78 -8 41 -3 77 -8 80 -10 4 -2 24 -7 44 -10 86 -13 332 -107 487 -186
34 -16 61 -29 62 -28 3 7 7 63 14 173 4 66 8 145 10 175 2 30 6 100 10 155 6
107 24 183 53 228 19 28 79 77 95 77 5 0 51 20 104 45 348 168 802 339 1258
475 77 23 147 44 155 45 8 2 72 20 141 39 70 19 137 37 150 40 13 2 71 16 129
31 58 15 114 29 125 31 38 7 120 26 135 30 11 4 7 12 -15 32 -17 15 -91 83
-165 151 -164 149 -194 195 -188 286 3 48 10 70 37 109 58 84 221 239 475 451
26 22 58 48 70 59 11 10 87 72 169 138 147 120 168 147 130 166 -33 17 -307
91 -408 111 -138 27 -177 33 -315 46 -163 15 -205 20 -260 30 -129 22 -236 90
-272 173 -38 85 -16 295 52 500 16 47 28 87 26 89 -1 1 -39 -10 -83 -26 -159
-56 -342 -154 -558 -297 -151 -100 -257 -174 -265 -183 -3 -3 -41 -33 -85 -65
-44 -33 -82 -62 -85 -65 -3 -3 -39 -33 -80 -66 -95 -76 -270 -225 -335 -287
-27 -26 -51 -45 -53 -44 -3 3 49 129 163 401 26 61 49 117 52 125 5 15 8 23
41 100 11 25 36 86 57 135 21 50 43 104 50 120 7 17 41 98 75 180 34 83 69
165 76 182 18 39 199 472 290 692 35 85 64 158 64 162 0 5 -6 6 -12 4 -12 -4
-152 -29 -228 -41 -19 -3 -46 -7 -60 -9 -72 -12 -178 -19 -285 -19 -165 1
-223 28 -290 135 -56 88 -127 308 -151 464 -4 28 -9 57 -10 65 -3 14 -6 35
-20 140 -7 46 -11 96 -19 205 -4 50 -8 91 -10 93 -2 2 -171 -165 -377 -370z"/>
</g>
</svg>
