<?xml version="1.0" encoding="UTF-8" standalone="no" ?>
<!DOCTYPE svg PUBLIC "-//W3C//DTD SVG 1.1//EN" "http://www.w3.org/Graphics/SVG/1.1/DTD/svg11.dtd">
<svg xmlns="http://www.w3.org/2000/svg" xmlns:xlink="http://www.w3.org/1999/xlink" version="1.1" width="500" height="160" viewBox="0 0 500 160" xml:space="preserve">
<desc>Created with Fabric.js 4.6.0</desc>
<defs>
</defs>
<g transform="matrix(2.9 0 0 2.9 190.65 19.81)" id="79Vl3mh2z48wrfAioUXNl"  >
<path style="stroke: none; stroke-width: 1; stroke-dasharray: none; stroke-linecap: butt; stroke-dashoffset: 0; stroke-linejoin: miter; stroke-miterlimit: 4; fill: rgb(150,25,28); fill-rule: nonzero; opacity: 1;" vector-effect="non-scaling-stroke"  transform=" translate(-4.55, 5.52)" d="M 4.546875 0.203125 C 6.703125 0.203125 8.578125 -1.09375 8.578125 -3.171875 C 8.578125 -4.640625 7.515625 -5.703125 6.40625 -5.9375 L 6.40625 -5.828125 C 7.3125 -6.140625 8.015625 -7.203125 8.015625 -8.328125 C 8.015625 -10.0625 6.5 -11.234375 4.453125 -11.234375 C 3.140625 -11.234375 1.84375 -10.65625 0.984375 -9.8125 L 1.875 -8.703125 C 2.640625 -9.421875 3.421875 -9.765625 4.421875 -9.765625 C 5.640625 -9.765625 6.390625 -9.296875 6.390625 -8.171875 C 6.390625 -6.953125 5.75 -6.421875 3.859375 -6.421875 L 2.828125 -6.421875 L 2.828125 -5.125 L 4.1875 -5.125 C 6.03125 -5.125 6.953125 -4.625 6.953125 -3.234375 C 6.953125 -1.875 5.953125 -1.25 4.546875 -1.25 C 3.296875 -1.25 2.515625 -1.5625 1.453125 -2.625 L 0.515625 -1.484375 C 1.671875 -0.296875 3.015625 0.203125 4.546875 0.203125 L 4.546875 -0.03125 Z M 4.546875 0.203125" stroke-linecap="round" />
</g>
<g transform="matrix(2.9 0 0 2.9 217.19 19.81)" id="LHb5dxePXm1p1MJMYoUso"  >
<path style="stroke: none; stroke-width: 1; stroke-dasharray: none; stroke-linecap: butt; stroke-dashoffset: 0; stroke-linejoin: miter; stroke-miterlimit: 4; fill: rgb(150,25,28); fill-rule: nonzero; opacity: 1;" vector-effect="non-scaling-stroke"  transform=" translate(-4.58, 5.52)" d="M 1.46875 0 L 2.96875 0 L 2.96875 -9.609375 L 7.828125 -9.609375 L 7.828125 -11.03125 L 1.328125 -11.03125 L 1.328125 -0.109375 L 1.609375 -0.109375 Z M 1.46875 0" stroke-linecap="round" />
</g>
<g transform="matrix(2.9 0 0 2.9 240.02 20.11)" id="TgXdMIlVSKYK1aIJ1glQi"  >
<path style="stroke: none; stroke-width: 1; stroke-dasharray: none; stroke-linecap: butt; stroke-dashoffset: 0; stroke-linejoin: miter; stroke-miterlimit: 4; fill: rgb(150,25,28); fill-rule: nonzero; opacity: 1;" vector-effect="non-scaling-stroke"  transform=" translate(-4.26, 5.41)" d="M 2.21875 0.203125 C 3.578125 0.203125 4.5 -0.734375 5.046875 -2.078125 L 8.625 -11.03125 L 6.953125 -11.03125 L 5.046875 -6.09375 L 4.328125 -4.09375 L 4.453125 -4.09375 L 3.6875 -6.09375 L 1.625 -11.03125 L -0.109375 -11.03125 L 3.609375 -2.640625 L 3.375 -2.078125 C 3.09375 -1.46875 2.828125 -1.3125 2.140625 -1.3125 C 1.8125 -1.3125 1.625 -1.359375 1.328125 -1.484375 L 1 -0.015625 C 1.46875 0.140625 1.75 0.203125 2.21875 0.203125 L 2.125 0 Z M 2.21875 0.203125" stroke-linecap="round" />
</g>
<g transform="matrix(2.9 0 0 2.9 266.81 19.81)" id="DvwTFmD7352qIMMWU29pf"  >
<path style="stroke: none; stroke-width: 1; stroke-dasharray: none; stroke-linecap: butt; stroke-dashoffset: 0; stroke-linejoin: miter; stroke-miterlimit: 4; fill: rgb(150,25,28); fill-rule: nonzero; opacity: 1;" vector-effect="non-scaling-stroke"  transform=" translate(-5.04, 5.52)" d="M 2.96875 -5.5 L 2.96875 -9.671875 L 4.375 -9.671875 C 6.265625 -9.671875 7.078125 -9.28125 7.078125 -7.71875 C 7.078125 -6.203125 6.328125 -5.625 4.4375 -5.625 L 2.84375 -5.625 L 2.703125 -5.5 Z M 1.46875 0 L 2.96875 0 L 2.96875 -4.28125 L 4.625 -4.28125 C 6.96875 -4.28125 8.75 -5.453125 8.75 -7.71875 C 8.75 -10.09375 6.96875 -11.03125 4.546875 -11.03125 L 1.328125 -11.03125 L 1.328125 0 Z M 1.46875 0" stroke-linecap="round" />
</g>
<g transform="matrix(2.9 0 0 2.9 290.8 19.81)" id="02NrknjIRmVA1YBgUpNql"  >
<path style="stroke: none; stroke-width: 1; stroke-dasharray: none; stroke-linecap: butt; stroke-dashoffset: 0; stroke-linejoin: miter; stroke-miterlimit: 4; fill: rgb(150,25,28); fill-rule: nonzero; opacity: 1;" vector-effect="non-scaling-stroke"  transform=" translate(-4.4, 5.52)" d="M 3.71875 0 L 5.234375 0 L 5.234375 -9.609375 L 8.484375 -9.609375 L 8.484375 -11.03125 L 0.3125 -11.03125 L 0.3125 -9.609375 L 3.5625 -9.609375 L 3.5625 0 Z M 3.71875 0" stroke-linecap="round" />
</g>
<g transform="matrix(2.9 0 0 2.9 314.67 19.81)" id="CD9xu0fHivNY64445VmAx"  >
<path style="stroke: none; stroke-width: 1; stroke-dasharray: none; stroke-linecap: butt; stroke-dashoffset: 0; stroke-linejoin: miter; stroke-miterlimit: 4; fill: rgb(150,25,28); fill-rule: nonzero; opacity: 1;" vector-effect="non-scaling-stroke"  transform=" translate(-4.47, 5.52)" d="M 0.03125 0 L 1.53125 0 L 2.578125 -3.265625 L 6.296875 -3.265625 L 7.328125 0 L 9.078125 0 L 5.328125 -11.03125 L 3.578125 -11.03125 L -0.140625 0 Z M 2.953125 -4.484375 L 3.46875 -6.125 C 3.859375 -7.34375 4.203125 -8.53125 4.5 -9.65625 L 4.359375 -9.65625 C 4.671875 -8.53125 5.015625 -7.34375 5.40625 -6.125 L 5.890625 -4.625 L 2.984375 -4.625 Z M 2.953125 -4.484375" stroke-linecap="round" />
</g>
<g transform="matrix(2.9 0 0 2.9 342.9 19.81)" id="8gqykSYcWNteVyDgm6uxy"  >
<path style="stroke: none; stroke-width: 1; stroke-dasharray: none; stroke-linecap: butt; stroke-dashoffset: 0; stroke-linejoin: miter; stroke-miterlimit: 4; fill: rgb(150,25,28); fill-rule: nonzero; opacity: 1;" vector-effect="non-scaling-stroke"  transform=" translate(-5.23, 5.52)" d="M 2.96875 -1.203125 L 2.96875 -5.125 L 4.71875 -5.125 C 6.609375 -5.125 7.515625 -4.65625 7.515625 -3.328125 C 7.515625 -1.875 6.5625 -1.328125 4.71875 -1.328125 L 2.96875 -1.328125 Z M 1.328125 -10.890625 L 1.328125 0 L 4.921875 0 C 7.3125 0 9.140625 -1.15625 9.140625 -3.265625 C 9.140625 -4.75 8.09375 -5.71875 6.9375 -5.953125 L 6.9375 -5.828125 C 7.8125 -6.125 8.515625 -7.203125 8.515625 -8.25 C 8.515625 -10.15625 6.859375 -11.03125 4.671875 -11.03125 L 1.328125 -11.03125 Z M 4.4375 -6.421875 L 2.96875 -6.421875 L 2.96875 -9.703125 L 4.5 -9.703125 C 6.171875 -9.703125 6.890625 -9.34375 6.890625 -8.09375 C 6.890625 -6.984375 6.28125 -6.421875 4.4375 -6.421875 Z M 4.4375 -6.421875" stroke-linecap="round" />
</g>
<g transform="matrix(2.9 0 0 2.9 368.74 19.81)" id="zcfXF__0S5Gwy6q4ToKnq"  >
<path style="stroke: none; stroke-width: 1; stroke-dasharray: none; stroke-linecap: butt; stroke-dashoffset: 0; stroke-linejoin: miter; stroke-miterlimit: 4; fill: rgb(150,25,28); fill-rule: nonzero; opacity: 1;" vector-effect="non-scaling-stroke"  transform=" translate(-4.47, 5.52)" d="M 0.03125 0 L 1.53125 0 L 2.578125 -3.265625 L 6.296875 -3.265625 L 7.328125 0 L 9.078125 0 L 5.328125 -11.03125 L 3.578125 -11.03125 L -0.140625 0 Z M 2.953125 -4.484375 L 3.46875 -6.125 C 3.859375 -7.34375 4.203125 -8.53125 4.5 -9.65625 L 4.359375 -9.65625 C 4.671875 -8.53125 5.015625 -7.34375 5.40625 -6.125 L 5.890625 -4.625 L 2.984375 -4.625 Z M 2.953125 -4.484375" stroke-linecap="round" />
</g>
<g transform="matrix(2.9 0 0 2.9 397.29 19.81)" id="_Paz6cRsLjOwoVHqnuBgr"  >
<path style="stroke: none; stroke-width: 1; stroke-dasharray: none; stroke-linecap: butt; stroke-dashoffset: 0; stroke-linejoin: miter; stroke-miterlimit: 4; fill: rgb(150,25,28); fill-rule: nonzero; opacity: 1;" vector-effect="non-scaling-stroke"  transform=" translate(-5.35, 5.52)" d="M 1.46875 0 L 2.96875 0 L 2.96875 -5.0625 L 7.703125 -5.0625 L 7.703125 0 L 9.375 0 L 9.375 -11.03125 L 7.703125 -11.03125 L 7.703125 -6.515625 L 2.96875 -6.515625 L 2.96875 -11.03125 L 1.328125 -11.03125 L 1.328125 0 Z M 1.46875 0" stroke-linecap="round" />
</g>
<g transform="matrix(2.9 0 0 2.9 427.8 19.81)" id="86kReShPNm8pDZ36iGkJX"  >
<path style="stroke: none; stroke-width: 1; stroke-dasharray: none; stroke-linecap: butt; stroke-dashoffset: 0; stroke-linejoin: miter; stroke-miterlimit: 4; fill: rgb(150,25,28); fill-rule: nonzero; opacity: 1;" vector-effect="non-scaling-stroke"  transform=" translate(-5.13, 5.52)" d="M 1.46875 0 L 4.828125 0 C 7.25 0 8.9375 -1.125 8.9375 -3.421875 C 8.9375 -5.59375 7.1875 -6.609375 4.8125 -6.609375 L 2.96875 -6.609375 L 2.96875 -11.03125 L 1.328125 -11.03125 L 1.328125 0 Z M 2.96875 -1.234375 L 2.96875 -5.25 L 4.625 -5.25 C 6.515625 -5.25 7.3125 -4.765625 7.3125 -3.390625 C 7.3125 -1.875 6.5 -1.34375 4.671875 -1.34375 L 2.96875 -1.34375 Z M 2.96875 -1.234375" stroke-linecap="round" />
</g>
<g transform="matrix(2.9 0 0 2.9 456.14 19.81)" id="vgatU0eQ0Zq-zAKpEaI5x"  >
<path style="stroke: none; stroke-width: 1; stroke-dasharray: none; stroke-linecap: butt; stroke-dashoffset: 0; stroke-linejoin: miter; stroke-miterlimit: 4; fill: rgb(150,25,28); fill-rule: nonzero; opacity: 1;" vector-effect="non-scaling-stroke"  transform=" translate(-5.35, 5.52)" d="M 1.46875 0 L 2.96875 0 L 2.96875 -5.0625 L 7.703125 -5.0625 L 7.703125 0 L 9.375 0 L 9.375 -11.03125 L 7.703125 -11.03125 L 7.703125 -6.515625 L 2.96875 -6.515625 L 2.96875 -11.03125 L 1.328125 -11.03125 L 1.328125 0 Z M 1.46875 0" stroke-linecap="round" />
</g>
<g transform="matrix(2.9 0 0 2.9 485.26 19.81)" id="_yA6wVYQ70XG6IlFrMbZJ"  >
<path style="stroke: none; stroke-width: 1; stroke-dasharray: none; stroke-linecap: butt; stroke-dashoffset: 0; stroke-linejoin: miter; stroke-miterlimit: 4; fill: rgb(150,25,28); fill-rule: nonzero; opacity: 1;" vector-effect="non-scaling-stroke"  transform=" translate(-4.66, 5.52)" d="M 1.46875 0 L 7.984375 0 L 7.984375 -1.390625 L 2.96875 -1.390625 L 2.96875 -5.078125 L 7.0625 -5.078125 L 7.0625 -6.46875 L 2.96875 -6.46875 L 2.96875 -9.609375 L 7.828125 -9.609375 L 7.828125 -11.03125 L 1.328125 -11.03125 L 1.328125 -0.109375 L 1.609375 -0.109375 Z M 1.46875 0" stroke-linecap="round" />
</g>
<g transform="matrix(2.9 0 0 2.9 192.41 77.11)" id="kf-NStvAN_AjhEHvDFIJL"  >
<path style="stroke: none; stroke-width: 1; stroke-dasharray: none; stroke-linecap: butt; stroke-dashoffset: 0; stroke-linejoin: miter; stroke-miterlimit: 4; fill: rgb(150,25,28); fill-rule: nonzero; opacity: 1;" vector-effect="non-scaling-stroke"  transform=" translate(-5.16, 5.52)" d="M 2.96875 -1.203125 L 2.96875 -5.171875 L 4.703125 -5.171875 C 6.546875 -5.171875 7.34375 -4.734375 7.34375 -3.359375 C 7.34375 -1.875 6.578125 -1.328125 4.75 -1.328125 L 2.96875 -1.328125 Z M 1.46875 0 L 4.96875 0 C 7.328125 0 8.984375 -1.140625 8.984375 -3.390625 C 8.984375 -5.546875 7.203125 -6.46875 4.890625 -6.46875 L 2.96875 -6.46875 L 2.96875 -9.609375 L 8.265625 -9.609375 L 8.265625 -11.03125 L 1.328125 -11.03125 L 1.328125 0 Z M 1.46875 0" stroke-linecap="round" />
</g>
<g transform="matrix(2.9 0 0 2.9 218.65 77.11)" id="nBDhy_AkvOS5_gs7VGz8F"  >
<path style="stroke: none; stroke-width: 1; stroke-dasharray: none; stroke-linecap: butt; stroke-dashoffset: 0; stroke-linejoin: miter; stroke-miterlimit: 4; fill: rgb(150,25,28); fill-rule: nonzero; opacity: 1;" vector-effect="non-scaling-stroke"  transform=" translate(-4.66, 5.52)" d="M 1.46875 0 L 7.984375 0 L 7.984375 -1.390625 L 2.96875 -1.390625 L 2.96875 -5.078125 L 7.0625 -5.078125 L 7.0625 -6.46875 L 2.96875 -6.46875 L 2.96875 -9.609375 L 7.828125 -9.609375 L 7.828125 -11.03125 L 1.328125 -11.03125 L 1.328125 -0.109375 L 1.609375 -0.109375 Z M 1.46875 0" stroke-linecap="round" />
</g>
<g transform="matrix(2.9 0 0 2.9 243.11 77.39)" id="b0_9_GS2jUPIE2UYblf1O"  >
<path style="stroke: none; stroke-width: 1; stroke-dasharray: none; stroke-linecap: butt; stroke-dashoffset: 0; stroke-linejoin: miter; stroke-miterlimit: 4; fill: rgb(150,25,28); fill-rule: nonzero; opacity: 1;" vector-effect="non-scaling-stroke"  transform=" translate(-4.41, 5.41)" d="M 0.921875 0.203125 C 2.203125 0.203125 3.0625 -0.671875 3.671875 -3.984375 C 4.03125 -5.890625 4.34375 -7.78125 4.671875 -9.609375 L 7.359375 -9.609375 L 7.359375 0 L 9 0 L 9 -11.03125 L 3.375 -11.03125 C 2.921875 -8.53125 2.546875 -6.375 2.109375 -4.125 C 1.578125 -1.578125 1.296875 -1.359375 0.734375 -1.359375 C 0.5625 -1.359375 0.421875 -1.390625 0.171875 -1.484375 L -0.171875 0 C 0.296875 0.171875 0.578125 0.203125 0.921875 0.203125 L 0.765625 0.078125 Z M 0.921875 0.203125" stroke-linecap="round" />
</g>
<g transform="matrix(2.9 0 0 2.9 273.34 77.11)" id="8Wis7DI0LZgRWJnbzlQcy"  >
<path style="stroke: none; stroke-width: 1; stroke-dasharray: none; stroke-linecap: butt; stroke-dashoffset: 0; stroke-linejoin: miter; stroke-miterlimit: 4; fill: rgb(150,25,28); fill-rule: nonzero; opacity: 1;" vector-effect="non-scaling-stroke"  transform=" translate(-4.47, 5.52)" d="M 0.03125 0 L 1.53125 0 L 2.578125 -3.265625 L 6.296875 -3.265625 L 7.328125 0 L 9.078125 0 L 5.328125 -11.03125 L 3.578125 -11.03125 L -0.140625 0 Z M 2.953125 -4.484375 L 3.46875 -6.125 C 3.859375 -7.34375 4.203125 -8.53125 4.5 -9.65625 L 4.359375 -9.65625 C 4.671875 -8.53125 5.015625 -7.34375 5.40625 -6.125 L 5.890625 -4.625 L 2.984375 -4.625 Z M 2.953125 -4.484375" stroke-linecap="round" />
</g>
<g transform="matrix(2.9 0 0 2.9 301 77.11)" id="YcpRYrCXT1R9xNTWQ7oSi"  >
<path style="stroke: none; stroke-width: 1; stroke-dasharray: none; stroke-linecap: butt; stroke-dashoffset: 0; stroke-linejoin: miter; stroke-miterlimit: 4; fill: rgb(150,25,28); fill-rule: nonzero; opacity: 1;" vector-effect="non-scaling-stroke"  transform=" translate(-5.04, 5.52)" d="M 2.96875 -5.5 L 2.96875 -9.671875 L 4.375 -9.671875 C 6.265625 -9.671875 7.078125 -9.28125 7.078125 -7.71875 C 7.078125 -6.203125 6.328125 -5.625 4.4375 -5.625 L 2.84375 -5.625 L 2.703125 -5.5 Z M 1.46875 0 L 2.96875 0 L 2.96875 -4.28125 L 4.625 -4.28125 C 6.96875 -4.28125 8.75 -5.453125 8.75 -7.71875 C 8.75 -10.09375 6.96875 -11.03125 4.546875 -11.03125 L 1.328125 -11.03125 L 1.328125 0 Z M 1.46875 0" stroke-linecap="round" />
</g>
<g transform="matrix(2.9 0 0 2.9 325.22 77.39)" id="do46ekA7fDOOI9epWF-8-"  >
<path style="stroke: none; stroke-width: 1; stroke-dasharray: none; stroke-linecap: butt; stroke-dashoffset: 0; stroke-linejoin: miter; stroke-miterlimit: 4; fill: rgb(150,25,28); fill-rule: nonzero; opacity: 1;" vector-effect="non-scaling-stroke"  transform=" translate(-4.26, 5.41)" d="M 2.21875 0.203125 C 3.578125 0.203125 4.5 -0.734375 5.046875 -2.078125 L 8.625 -11.03125 L 6.953125 -11.03125 L 5.046875 -6.09375 L 4.328125 -4.09375 L 4.453125 -4.09375 L 3.6875 -6.09375 L 1.625 -11.03125 L -0.109375 -11.03125 L 3.609375 -2.640625 L 3.375 -2.078125 C 3.09375 -1.46875 2.828125 -1.3125 2.140625 -1.3125 C 1.8125 -1.3125 1.625 -1.359375 1.328125 -1.484375 L 1 -0.015625 C 1.46875 0.140625 1.75 0.203125 2.21875 0.203125 L 2.125 0 Z M 2.21875 0.203125" stroke-linecap="round" />
</g>
<g transform="matrix(2.9 0 0 2.9 351.28 77.11)" id="CV5hp9_u_uLpLsDtrPqf-"  >
<path style="stroke: none; stroke-width: 1; stroke-dasharray: none; stroke-linecap: butt; stroke-dashoffset: 0; stroke-linejoin: miter; stroke-miterlimit: 4; fill: rgb(150,25,28); fill-rule: nonzero; opacity: 1;" vector-effect="non-scaling-stroke"  transform=" translate(-4.86, 5.52)" d="M 5.546875 0.203125 C 6.9375 0.203125 8.109375 -0.390625 9.03125 -1.484375 L 8.109375 -2.53125 C 7.3125 -1.65625 6.625 -1.25 5.609375 -1.25 C 3.546875 -1.25 2.40625 -2.828125 2.40625 -5.546875 C 2.40625 -8.21875 3.609375 -9.765625 5.65625 -9.765625 C 6.5625 -9.765625 7.1875 -9.40625 7.84375 -8.671875 L 8.765625 -9.765625 C 8.046875 -10.546875 6.9375 -11.234375 5.625 -11.234375 C 2.890625 -11.234375 0.6875 -8.96875 0.6875 -5.484375 C 0.6875 -1.984375 2.859375 0.203125 5.546875 0.203125 L 5.4375 0.171875 Z M 5.546875 0.203125" stroke-linecap="round" />
</g>
<g transform="matrix(2.9 0 0 2.9 377.41 77.11)" id="4-EdBiizpNLlPctNr6nUv"  >
<path style="stroke: none; stroke-width: 1; stroke-dasharray: none; stroke-linecap: butt; stroke-dashoffset: 0; stroke-linejoin: miter; stroke-miterlimit: 4; fill: rgb(150,25,28); fill-rule: nonzero; opacity: 1;" vector-effect="non-scaling-stroke"  transform=" translate(-4.47, 5.52)" d="M 0.03125 0 L 1.53125 0 L 2.578125 -3.265625 L 6.296875 -3.265625 L 7.328125 0 L 9.078125 0 L 5.328125 -11.03125 L 3.578125 -11.03125 L -0.140625 0 Z M 2.953125 -4.484375 L 3.46875 -6.125 C 3.859375 -7.34375 4.203125 -8.53125 4.5 -9.65625 L 4.359375 -9.65625 C 4.671875 -8.53125 5.015625 -7.34375 5.40625 -6.125 L 5.890625 -4.625 L 2.984375 -4.625 Z M 2.953125 -4.484375" stroke-linecap="round" />
</g>
<g transform="matrix(2.9 0 0 2.9 402.8 73.12)" id="YYXXz3z4J_B_bOyfjm0K6"  >
<path style="stroke: none; stroke-width: 1; stroke-dasharray: none; stroke-linecap: butt; stroke-dashoffset: 0; stroke-linejoin: miter; stroke-miterlimit: 4; fill: rgb(150,25,28); fill-rule: nonzero; opacity: 1;" vector-effect="non-scaling-stroke"  transform=" translate(-4.26, 6.89)" d="M 2.21875 0.203125 C 3.578125 0.203125 4.5 -0.734375 5.046875 -2.078125 L 8.625 -11.03125 L 6.953125 -11.03125 L 5.046875 -6.09375 L 4.328125 -4.09375 L 4.453125 -4.09375 L 3.6875 -6.09375 L 1.625 -11.03125 L -0.109375 -11.03125 L 3.609375 -2.640625 L 3.375 -2.078125 C 3.09375 -1.46875 2.828125 -1.3125 2.140625 -1.3125 C 1.8125 -1.3125 1.625 -1.359375 1.328125 -1.484375 L 1 -0.015625 C 1.46875 0.140625 1.75 0.203125 2.21875 0.203125 L 2.125 0 Z M 4.203125 -11.59375 C 6.046875 -11.59375 6.765625 -12.75 6.859375 -13.984375 L 5.390625 -13.984375 C 5.34375 -13.09375 5.125 -12.59375 4.203125 -12.59375 C 3.296875 -12.59375 3.09375 -13.09375 3.046875 -13.984375 L 1.578125 -13.984375 C 1.65625 -12.75 2.390625 -11.59375 4.203125 -11.59375 L 4.203125 -11.828125 Z M 4.203125 -11.59375" stroke-linecap="round" />
</g>
<g transform="matrix(2.9 0 0 2.9 193.48 134.1)" id="GIW6SDHXHz-g8yF3Jzktr"  >
<path style="stroke: none; stroke-width: 1; stroke-dasharray: none; stroke-linecap: butt; stroke-dashoffset: 0; stroke-linejoin: miter; stroke-miterlimit: 4; fill: rgb(150,25,28); fill-rule: nonzero; opacity: 1;" vector-effect="non-scaling-stroke"  transform=" translate(-5.52, 5.62)" d="M 1.328125 -10.890625 L 1.328125 0 L 2.96875 0 L 2.96875 -5.09375 L 4.609375 -5.09375 L 7.921875 0 L 9.71875 0 L 5.953125 -5.875 L 7.296875 -8.328125 C 7.9375 -9.5 8.140625 -9.65625 8.609375 -9.65625 C 8.71875 -9.65625 8.859375 -9.625 9.109375 -9.546875 L 9.390625 -11.046875 C 9.078125 -11.1875 8.84375 -11.234375 8.640625 -11.234375 C 7.65625 -11.234375 7 -10.796875 6.109375 -9.171875 L 4.625 -6.46875 L 2.96875 -6.46875 L 2.96875 -11.03125 L 1.328125 -11.03125 Z M 1.328125 -10.890625" stroke-linecap="round" />
</g>
<g transform="matrix(2.9 0 0 2.9 218.11 134.4)" id="exvSVgmhvjZCGn7YM9jI_"  >
<path style="stroke: none; stroke-width: 1; stroke-dasharray: none; stroke-linecap: butt; stroke-dashoffset: 0; stroke-linejoin: miter; stroke-miterlimit: 4; fill: rgb(150,25,28); fill-rule: nonzero; opacity: 1;" vector-effect="non-scaling-stroke"  transform=" translate(-4.47, 5.52)" d="M 0.03125 0 L 1.53125 0 L 2.578125 -3.265625 L 6.296875 -3.265625 L 7.328125 0 L 9.078125 0 L 5.328125 -11.03125 L 3.578125 -11.03125 L -0.140625 0 Z M 2.953125 -4.484375 L 3.46875 -6.125 C 3.859375 -7.34375 4.203125 -8.53125 4.5 -9.65625 L 4.359375 -9.65625 C 4.671875 -8.53125 5.015625 -7.34375 5.40625 -6.125 L 5.890625 -4.625 L 2.984375 -4.625 Z M 2.953125 -4.484375" stroke-linecap="round" />
</g>
<g transform="matrix(2.9 0 0 2.9 246.68 134.4)" id="Y4e9ItwvZ55woRb1oVieG"  >
<path style="stroke: none; stroke-width: 1; stroke-dasharray: none; stroke-linecap: butt; stroke-dashoffset: 0; stroke-linejoin: miter; stroke-miterlimit: 4; fill: rgb(150,25,28); fill-rule: nonzero; opacity: 1;" vector-effect="non-scaling-stroke"  transform=" translate(-5.35, 5.52)" d="M 1.46875 0 L 2.96875 0 L 2.96875 -5.0625 L 7.703125 -5.0625 L 7.703125 0 L 9.375 0 L 9.375 -11.03125 L 7.703125 -11.03125 L 7.703125 -6.515625 L 2.96875 -6.515625 L 2.96875 -11.03125 L 1.328125 -11.03125 L 1.328125 0 Z M 1.46875 0" stroke-linecap="round" />
</g>
<g transform="matrix(2.9 0 0 2.9 275.25 134.4)" id="0Rpgmta6rYCtf-VZdO6Vz"  >
<path style="stroke: none; stroke-width: 1; stroke-dasharray: none; stroke-linecap: butt; stroke-dashoffset: 0; stroke-linejoin: miter; stroke-miterlimit: 4; fill: rgb(150,25,28); fill-rule: nonzero; opacity: 1;" vector-effect="non-scaling-stroke"  transform=" translate(-4.47, 5.52)" d="M 0.03125 0 L 1.53125 0 L 2.578125 -3.265625 L 6.296875 -3.265625 L 7.328125 0 L 9.078125 0 L 5.328125 -11.03125 L 3.578125 -11.03125 L -0.140625 0 Z M 2.953125 -4.484375 L 3.46875 -6.125 C 3.859375 -7.34375 4.203125 -8.53125 4.5 -9.65625 L 4.359375 -9.65625 C 4.671875 -8.53125 5.015625 -7.34375 5.40625 -6.125 L 5.890625 -4.625 L 2.984375 -4.625 Z M 2.953125 -4.484375" stroke-linecap="round" />
</g>
<g transform="matrix(2.9 0 0 2.9 303.8 138.89)" id="ntgpaZavPFSesU5s-5ypP"  >
<path style="stroke: none; stroke-width: 1; stroke-dasharray: none; stroke-linecap: butt; stroke-dashoffset: 0; stroke-linejoin: miter; stroke-miterlimit: 4; fill: rgb(150,25,28); fill-rule: nonzero; opacity: 1;" vector-effect="non-scaling-stroke"  transform=" translate(-5.23, 3.97)" d="M 1.765625 0 L 8.5625 0 L 8.5625 3.09375 L 10.046875 3.09375 L 10.1875 -0.453125 L 10.1875 -1.390625 L 8.984375 -1.390625 L 8.984375 -11.03125 L 3.265625 -11.03125 C 2.875 -8.578125 2.65625 -7.296875 2.265625 -5.140625 C 1.75 -2.296875 1.359375 -1.578125 0.90625 -1.390625 L 0.28125 -1.390625 L 0.28125 -0.453125 L 0.421875 3.09375 L 1.90625 3.09375 L 1.90625 -0.109375 Z M 2.546875 -1.1875 C 3.03125 -1.859375 3.453125 -3.109375 3.796875 -4.9375 C 4.125 -6.75 4.28125 -7.90625 4.59375 -9.609375 L 7.328125 -9.609375 L 7.328125 -1.390625 L 2.703125 -1.390625 Z M 2.546875 -1.1875" stroke-linecap="round" />
</g>
<g transform="matrix(2.9 0 0 2.9 337.74 134.4)" id="wIY1heREzI6EVrxLfSHE6"  >
<path style="stroke: none; stroke-width: 1; stroke-dasharray: none; stroke-linecap: butt; stroke-dashoffset: 0; stroke-linejoin: miter; stroke-miterlimit: 4; fill: rgb(150,25,28); fill-rule: nonzero; opacity: 1;" vector-effect="non-scaling-stroke"  transform=" translate(-6.55, 5.52)" d="M 1.46875 0 L 4.53125 0 C 6.9375 0 8.625 -1.125 8.625 -3.421875 C 8.625 -5.59375 6.890625 -6.609375 4.515625 -6.609375 L 2.96875 -6.609375 L 2.96875 -11.03125 L 1.328125 -11.03125 L 1.328125 -0.109375 Z M 2.96875 -1.234375 L 2.96875 -5.25 L 4.328125 -5.25 C 6.203125 -5.25 7 -4.765625 7 -3.390625 C 7 -1.875 6.1875 -1.34375 4.359375 -1.34375 L 2.96875 -1.34375 Z M 10.25 0 L 11.78125 0 L 11.78125 -11.03125 L 10.125 -11.03125 L 10.125 0 Z M 10.25 0" stroke-linecap="round" />
</g>
<g transform="matrix(0.9 0 0 0.9 80.91 80.1)" id="9lo9rpO2m5p_SGe11wrpI"  >
<path style="stroke: none; stroke-width: 1; stroke-dasharray: none; stroke-linecap: butt; stroke-dashoffset: 0; stroke-linejoin: miter; stroke-miterlimit: 4; fill: rgb(150,25,28); fill-rule: nonzero; opacity: 1;" vector-effect="non-scaling-stroke"  transform=" translate(-239.62, -87.77)" d="M 204.410156 27.015625 C 204.410156 27.015625 213.792969 32.796875 218.441406 32.328125 C 223.089844 31.867188 222.886719 31.144531 228.929688 23.933594 C 235.425781 16.183594 252.519531 -0.00390625 252.519531 -0.00390625 C 252.519531 -0.00390625 253.507813 24.632813 260.714844 27.480469 C 260.714844 27.480469 262.980469 29.6875 280.179688 26.257813 L 257.699219 80.003906 C 257.699219 80.003906 281.164063 57.867188 297.320313 53.335938 C 297.320313 53.335938 292.554688 65.652344 295.75 69.488281 C 298.945313 73.324219 304.058594 73.03125 310.972656 73.789063 C 317.890625 74.542969 323.757813 76.460938 328.40625 77.972656 C 328.40625 77.972656 307.488281 94.707031 306.09375 97.609375 C 306.09375 97.609375 302.722656 100.75 305.976563 105.050781 L 314.460938 112.835938 C 314.460938 112.835938 283.609375 118.992188 258.855469 131.429688 C 258.855469 131.429688 255.601563 131.660156 254.675781 136.65625 L 253.683594 152.230469 C 253.683594 152.230469 242.527344 145.953125 234.042969 145.953125 C 234.042969 145.953125 238.808594 159.433594 244.734375 168.5 C 244.734375 168.5 245.894531 172.800781 243.222656 174.074219 C 243.222656 174.074219 242.527344 176.515625 236.484375 175.121094 C 236.484375 175.121094 227.417969 156.644531 226.257813 145.839844 C 226.257813 145.839844 215.160156 145.839844 200.167969 153.042969 C 200.167969 153.042969 202.144531 149.160156 203.886719 141.074219 C 204.789063 136.882813 204.234375 130.714844 198.121094 130.714844 C 198.121094 130.714844 158.304688 129.683594 155.835938 124.6875 C 161.265625 122.984375 164.40625 121.613281 166.46875 118.238281 C 168.160156 115.464844 166.859375 113.238281 163.386719 107.371094 L 150.835938 88.894531 C 150.835938 88.894531 190.925781 93.023438 179.828125 67.746094 C 179.828125 67.746094 200.050781 75.765625 203.363281 78.960938 C 205.804688 78.347656 204.410156 27.015625 204.410156 27.015625" stroke-linecap="round" />
</g>
<g transform="matrix(0.9 0 0 0.9 97.18 99.42)" id="P81j1G_8r22u41xAuLjhy"  >
<path style="stroke: none; stroke-width: 1; stroke-dasharray: none; stroke-linecap: butt; stroke-dashoffset: 0; stroke-linejoin: miter; stroke-miterlimit: 4; fill: rgb(255,255,255); fill-rule: nonzero; opacity: 1;" vector-effect="non-scaling-stroke"  transform=" translate(-257.7, -109.21)" d="M 249.050781 90.078125 C 248.398438 92.425781 247.792969 94.625 247.144531 96.96875 C 248.328125 97.570313 249.449219 98.140625 250.726563 98.789063 C 251.261719 97.085938 251.71875 95.765625 252.097656 94.417969 C 253.078125 90.933594 253.003906 90.839844 249.050781 90.078125 M 254.902344 92.652344 C 254.214844 95.058594 253.589844 97.253906 252.882813 99.722656 C 255.015625 100.132813 256.898438 100.492188 258.855469 100.871094 C 258.90625 97.070313 257.769531 94.75 254.902344 92.652344 M 244.148438 101.152344 C 244.507813 101.753906 245.207031 102.375 245.171875 102.949219 C 244.90625 107.257813 246.988281 110.269531 250.308594 112.609375 C 252.683594 114.285156 255.136719 115.84375 258.234375 117.910156 C 258.339844 116.253906 258.929688 114.617188 258.378906 113.582031 C 257.703125 112.3125 256.082031 111.546875 254.914063 110.597656 C 256.253906 108.144531 257.503906 105.847656 259.128906 102.863281 C 255.988281 103.371094 253.835938 100.949219 251.210938 102.636719 C 250.988281 102.777344 249.921875 102.179688 249.777344 101.75 C 249.117188 99.796875 247.726563 99.527344 245.949219 99.644531 C 245.335938 99.683594 244.128906 99.132813 244.144531 99.066406 C 244.570313 97.148438 242.894531 96.695313 241.90625 95.855469 C 240.757813 94.878906 240.734375 94.160156 242.199219 93.351563 C 243.066406 93.972656 243.984375 94.625 245.214844 95.507813 C 245.738281 93.667969 246.199219 92.054688 246.601563 90.640625 C 245.507813 89.882813 244.628906 89.269531 243.753906 88.660156 C 243.898438 88.414063 244.046875 88.167969 244.191406 87.921875 C 250.367188 87.011719 255.53125 88.835938 259.367188 93.820313 C 261.074219 92.742188 262.570313 91.515625 264.277344 90.78125 C 267.71875 89.304688 271.488281 90.347656 273.234375 92.988281 C 275.042969 95.722656 274.609375 100.222656 271.949219 102.605469 C 270.308594 104.078125 268.226563 105.070313 266.316406 106.230469 C 265.398438 106.789063 264.363281 107.164063 263.472656 107.761719 C 262.519531 108.402344 262.410156 109.105469 263.464844 109.921875 C 264.070313 110.386719 264.417969 111.183594 265.203125 112.277344 C 262.503906 112.25 261.105469 111.515625 260.605469 109.667969 C 260.078125 107.734375 261.164063 106.46875 262.734375 105.597656 C 264.691406 104.503906 266.75 103.582031 268.679688 102.4375 C 270.800781 101.175781 272.113281 99.335938 272.066406 96.722656 C 272.015625 94.121094 270.542969 92.539063 267.925781 92.382813 C 265.097656 92.214844 262.679688 93.324219 261.402344 95.726563 C 260.695313 97.066406 261.09375 98.988281 260.988281 100.679688 C 264.515625 100.5 265.246094 99.617188 264.859375 96.757813 C 264.773438 96.113281 265.214844 95.402344 265.535156 94.320313 C 268.445313 98.152344 267.339844 101.804688 263.335938 102.671875 C 261.375 103.097656 260.585938 103.964844 260.039063 105.71875 C 259.574219 107.199219 258.671875 108.542969 257.90625 110.066406 C 258.378906 110.472656 258.839844 110.933594 259.359375 111.316406 C 261.480469 112.875 261.652344 114.871094 260.570313 117.058594 C 258.578125 121.082031 256.585938 125.105469 254.4375 129.046875 C 254.023438 129.804688 252.894531 130.171875 252.09375 130.714844 C 251.910156 130.5 251.726563 130.28125 251.542969 130.066406 C 252.878906 127.402344 254.191406 124.730469 255.558594 122.085938 C 256.378906 120.5 256.203125 119.246094 254.59375 118.289063 C 253.441406 120.605469 252.519531 123.007813 251.132813 125.097656 C 249.878906 126.976563 250.164063 130.367188 246.035156 130.464844 C 247.800781 126.996094 249.363281 123.933594 250.917969 120.867188 C 252.59375 117.570313 252.457031 116.84375 249.382813 114.691406 C 245.316406 111.839844 242.640625 108.277344 243.03125 103.03125 C 243.066406 102.550781 243.234375 102.082031 243.34375 101.605469 C 243.613281 101.453125 243.878906 101.300781 244.148438 101.152344" stroke-linecap="round" />
</g>
<g transform="matrix(0.9 0 0 0.9 82.36 73.84)" id="N41DrQUZQyAVES7G7E88d"  >
<path style="stroke: none; stroke-width: 1; stroke-dasharray: none; stroke-linecap: butt; stroke-dashoffset: 0; stroke-linejoin: miter; stroke-miterlimit: 4; fill: rgb(255,255,255); fill-rule: nonzero; opacity: 1;" vector-effect="non-scaling-stroke"  transform=" translate(-241.24, -80.81)" d="M 235.941406 69.476563 C 236.652344 74.640625 237.929688 79.222656 242.320313 82.300781 C 244.746094 83.996094 245.320313 83.898438 247.058594 81.402344 C 250.050781 77.101563 249.878906 72.40625 248.699219 67.292969 C 244.476563 68.015625 240.351563 68.722656 235.941406 69.476563 M 243.519531 86.027344 C 243.003906 86.875 242.671875 87.996094 241.925781 88.527344 C 238.5625 90.914063 239.265625 94.136719 239.777344 97.410156 C 240.148438 99.789063 240.425781 102.191406 240.589844 104.589844 C 240.628906 105.117188 239.988281 105.6875 239.664063 106.238281 C 239.269531 105.734375 238.601563 105.273438 238.527344 104.726563 C 237.65625 98.304688 236.875 91.867188 236.066406 85.433594 C 235.910156 84.160156 235.863281 82.980469 238.015625 83.464844 C 238.253906 84.988281 238.507813 86.605469 238.757813 88.210938 C 241.664063 86.65625 241.898438 85.066406 239.550781 82.914063 C 235.402344 79.109375 234.242188 74.023438 233.632813 68.753906 C 233.585938 68.34375 234.5625 67.523438 235.175781 67.382813 C 237.273438 66.894531 239.425781 66.605469 241.5625 66.277344 C 245.179688 65.71875 245.921875 64.789063 245.671875 61.042969 C 245.445313 57.730469 244.160156 57.046875 240.957031 58.75 C 242.785156 60.164063 244.613281 61.609375 242.914063 64.949219 C 241.902344 63.523438 241.089844 62.378906 240.230469 61.175781 C 238.3125 62.324219 239.371094 67.484375 235.359375 64.808594 C 233.84375 63.800781 230.585938 64.359375 230.683594 60.464844 C 232.902344 61.359375 234.632813 62.050781 236.789063 62.917969 C 236.941406 61.886719 236.996094 60.898438 237.261719 59.96875 C 237.472656 59.230469 237.8125 58.453125 238.3125 57.882813 C 239.753906 56.21875 244.015625 54.886719 245.347656 55.566406 C 246.847656 56.335938 248.253906 60.15625 247.914063 62.546875 C 247.800781 63.34375 247.683594 64.140625 247.539063 65.105469 C 248.582031 65.003906 249.375 64.925781 250.144531 64.851563 C 253.175781 71.660156 251.9375 79.996094 247.113281 84.613281 C 246.285156 85.40625 245.019531 85.742188 243.953125 86.289063" stroke-linecap="round" />
</g>
<g transform="matrix(0.9 0 0 0.9 65.02 60.5)" id="Fw25NHrJHbfPZFfmgV_85"  >
<path style="stroke: none; stroke-width: 1; stroke-dasharray: none; stroke-linecap: butt; stroke-dashoffset: 0; stroke-linejoin: miter; stroke-miterlimit: 4; fill: rgb(255,255,255); fill-rule: nonzero; opacity: 1;" vector-effect="non-scaling-stroke"  transform=" translate(-221.98, -66.02)" d="M 228.453125 54.113281 C 227.246094 54.40625 226.277344 54.648438 225.070313 54.941406 L 225.070313 51.417969 C 227.398438 51.109375 230.128906 53.410156 231.84375 49.976563 C 232.117188 50.101563 232.386719 50.222656 232.65625 50.347656 C 232.621094 51.117188 232.808594 51.992188 232.507813 52.640625 C 231.011719 55.855469 229.339844 58.984375 227.828125 62.191406 C 227.214844 63.492188 227.503906 64.609375 228.6875 65.707031 C 232.628906 69.351563 233.679688 74.191406 233.804688 79.296875 C 233.820313 79.824219 233.1875 80.710938 232.691406 80.847656 C 228.25 82.085938 223.71875 82.257813 219.164063 81.890625 C 219.023438 81.609375 218.882813 81.324219 218.742188 81.042969 C 219.390625 80.636719 220.011719 79.9375 220.695313 79.871094 C 223.75 79.574219 226.828125 79.523438 229.882813 79.210938 C 230.464844 79.152344 231.371094 78.378906 231.449219 77.835938 C 232.28125 72.050781 227.199219 65.34375 221.445313 64.566406 C 220.328125 64.417969 218.851563 63.859375 218.589844 65.875 C 218.558594 66.117188 217.957031 66.316406 217.59375 66.480469 C 214.730469 67.753906 213.132813 70.058594 212.09375 72.917969 C 211.839844 73.617188 211.019531 74.109375 210.148438 74.390625 C 210.777344 66.222656 217.304688 63.898438 223.148438 60.894531 C 223.660156 61.703125 224.183594 62.535156 224.894531 63.667969 C 226.195313 60.175781 227.273438 57.277344 228.453125 54.113281" stroke-linecap="round" />
</g>
<g transform="matrix(0.9 0 0 0.9 56.08 78.18)" id="0v5FcJcJK5KsHuJZtPoAn"  >
<path style="stroke: none; stroke-width: 1; stroke-dasharray: none; stroke-linecap: butt; stroke-dashoffset: 0; stroke-linejoin: miter; stroke-miterlimit: 4; fill: rgb(255,255,255); fill-rule: nonzero; opacity: 1;" vector-effect="non-scaling-stroke"  transform=" translate(-212.05, -85.63)" d="M 212.617188 93.171875 C 210.816406 91.550781 211.113281 88.726563 208.457031 88.941406 C 207.59375 89.015625 206.539063 89.175781 205.945313 89.710938 C 204.660156 90.875 203.699219 92.394531 202.449219 93.605469 C 200.667969 95.332031 200.023438 97.253906 200.5625 99.699219 C 200.699219 100.335938 200.113281 101.132813 199.679688 102.371094 C 197.429688 98.324219 197.660156 95.851563 200.09375 92.996094 C 201.171875 91.726563 202.40625 90.566406 203.332031 89.199219 C 205.070313 86.625 207.078125 85.265625 210.230469 87.261719 C 211.328125 81.988281 215.238281 79.019531 218.648438 75.722656 C 216.550781 74.648438 215.363281 78.734375 212.996094 76.335938 C 214.261719 74.382813 216.121094 73.671875 218.195313 73.253906 C 220.3125 72.828125 222.507813 72.5625 223.261719 69.910156 C 223.398438 69.4375 224.488281 69.230469 225.140625 68.898438 C 225.417969 69.199219 225.695313 69.5 225.972656 69.800781 C 224.660156 71.726563 223.519531 73.800781 221.996094 75.539063 C 220.25 77.535156 218.097656 79.171875 216.253906 81.089844 C 213.605469 83.847656 211.730469 86.871094 213.425781 90.957031 C 213.621094 91.433594 212.972656 92.257813 212.617188 93.171875" stroke-linecap="round" />
</g>
<g transform="matrix(0.9 0 0 0.9 66.58 86.47)" id="UYlDoKLJKxzDxIHbGqeNY"  >
<path style="stroke: none; stroke-width: 1; stroke-dasharray: none; stroke-linecap: butt; stroke-dashoffset: 0; stroke-linejoin: miter; stroke-miterlimit: 4; fill: rgb(255,255,255); fill-rule: nonzero; opacity: 1;" vector-effect="non-scaling-stroke"  transform=" translate(-223.71, -94.83)" d="M 232.839844 84.519531 C 229.78125 91.34375 226.644531 98.097656 223.75 104.949219 C 222.71875 107.386719 220.847656 105.695313 219.453125 106.222656 C 219.089844 106.359375 218.335938 105.457031 217.761719 104.578125 C 221.882813 104.839844 222.433594 101.914063 223.558594 99.339844 C 225.171875 95.648438 227.078125 92.082031 229.109375 87.960938 C 225.671875 88.785156 222.945313 89.519531 220.179688 90.070313 C 218.890625 90.328125 217.519531 90.339844 216.207031 90.234375 C 215.640625 90.1875 215.121094 89.5625 214.578125 89.195313 C 215.160156 88.804688 215.746094 88.058594 216.320313 88.070313 C 221.390625 88.195313 226.070313 87.070313 230.121094 83.929688 C 231.441406 82.90625 232.183594 83.335938 232.839844 84.519531" stroke-linecap="round" />
</g>
<g transform="matrix(0.9 0 0 0.9 88.81 48.75)" id="nOmtjbi2fOKWgWCMX5QS4"  >
<path style="stroke: none; stroke-width: 1; stroke-dasharray: none; stroke-linecap: butt; stroke-dashoffset: 0; stroke-linejoin: miter; stroke-miterlimit: 4; fill: rgb(255,255,255); fill-rule: nonzero; opacity: 1;" vector-effect="non-scaling-stroke"  transform=" translate(-248.39, -52.98)" d="M 236.785156 51.863281 C 243.414063 51.863281 249.898438 51.863281 256.382813 51.863281 C 257.882813 51.863281 259.394531 51.761719 260.875 51.925781 C 261.398438 51.984375 261.847656 52.695313 262.332031 53.105469 C 261.769531 53.4375 261.214844 54.035156 260.652344 54.046875 C 256.570313 54.132813 252.484375 54.09375 248.402344 54.09375 C 244.582031 54.09375 240.765625 54.09375 236.84375 54.09375 C 236.707031 55.152344 236.605469 55.945313 236.5 56.765625 C 235.089844 57.394531 234.4375 57.015625 234.472656 55.46875 C 234.511719 53.886719 234.378906 52.296875 234.53125 50.726563 C 234.589844 50.09375 235.199219 49.511719 235.5625 48.910156 C 235.921875 49.507813 236.308594 50.101563 236.636719 50.71875 C 236.746094 50.925781 236.707031 51.207031 236.785156 51.863281" stroke-linecap="round" />
</g>
<g transform="matrix(0.9 0 0 0.9 56.26 89.22)" id="kHnl4WiSK-q2ATuctauBm"  >
<path style="stroke: none; stroke-width: 1; stroke-dasharray: none; stroke-linecap: butt; stroke-dashoffset: 0; stroke-linejoin: miter; stroke-miterlimit: 4; fill: rgb(255,255,255); fill-rule: nonzero; opacity: 1;" vector-effect="non-scaling-stroke"  transform=" translate(-212.25, -97.89)" d="M 221.816406 99.386719 C 217.09375 101.148438 212.808594 99.730469 208.589844 94.746094 C 207.472656 95.953125 206.078125 96.988281 205.382813 98.375 C 204.832031 99.46875 205.121094 100.996094 205.070313 102.328125 C 205.039063 103.164063 205.066406 104.003906 204.75 104.835938 C 201.730469 102.007813 201.695313 98.914063 204.226563 96.230469 C 205.820313 94.542969 207.421875 92.859375 209.226563 90.945313 C 209.84375 92.074219 210.226563 92.867188 210.6875 93.613281 C 212.761719 96.933594 215.832031 98.097656 219.636719 97.851563 C 220.441406 97.796875 221.277344 98.296875 222.101563 98.542969 C 222.003906 98.824219 221.910156 99.105469 221.816406 99.386719" stroke-linecap="round" />
</g>
<g transform="matrix(0.9 0 0 0.9 73.98 104.48)" id="hHbWi4FhObGoeeI3xVp3H"  >
<path style="stroke: none; stroke-width: 1; stroke-dasharray: none; stroke-linecap: butt; stroke-dashoffset: 0; stroke-linejoin: miter; stroke-miterlimit: 4; fill: rgb(255,255,255); fill-rule: nonzero; opacity: 1;" vector-effect="non-scaling-stroke"  transform=" translate(-231.93, -114.81)" d="M 235.917969 123.042969 C 235.308594 123.511719 234.8125 123.894531 234.21875 124.347656 C 230.066406 118.695313 228.109375 112.496094 227.9375 105.628906 C 229.242188 105.039063 230.007813 105.015625 230.136719 106.699219 C 230.574219 112.609375 232.335938 118.085938 235.917969 123.042969" stroke-linecap="round" />
</g>
<g transform="matrix(0.9 0 0 0.9 78.8 105.32)" id="otYhHfN-Y9R3giQ1LyLhB"  >
<path style="stroke: none; stroke-width: 1; stroke-dasharray: none; stroke-linecap: butt; stroke-dashoffset: 0; stroke-linejoin: miter; stroke-miterlimit: 4; fill: rgb(255,255,255); fill-rule: nonzero; opacity: 1;" vector-effect="non-scaling-stroke"  transform=" translate(-237.29, -115.73)" d="M 234.292969 108.484375 C 234.875 108.886719 235.765625 109.164063 235.992188 109.714844 C 237.628906 113.730469 239.132813 117.800781 240.8125 122.203125 C 240.898438 122.136719 240.410156 122.523438 239.828125 122.984375 C 236.460938 118.84375 234.402344 114.324219 233.753906 109.191406 C 233.933594 108.953125 234.113281 108.71875 234.292969 108.484375" stroke-linecap="round" />
</g>
<g transform="matrix(0.9 0 0 0.9 83.91 104.36)" id="-o_66FpgsxWZRxOYbs3-x"  >
<path style="stroke: none; stroke-width: 1; stroke-dasharray: none; stroke-linecap: butt; stroke-dashoffset: 0; stroke-linejoin: miter; stroke-miterlimit: 4; fill: rgb(255,255,255); fill-rule: nonzero; opacity: 1;" vector-effect="non-scaling-stroke"  transform=" translate(-242.95, -114.69)" d="M 240.144531 107.761719 C 242.46875 112.34375 244.464844 116.277344 246.734375 120.746094 C 246.792969 120.691406 246.355469 121.113281 245.835938 121.613281 C 242.140625 118.125 240.097656 114.144531 239.179688 109.59375 C 239.070313 109.050781 239.824219 108.335938 240.144531 107.761719" stroke-linecap="round" />
</g>
<g transform="matrix(0.9 0 0 0.9 73.89 88.88)" id="FXuAD-9CeBNI344bN6h5w"  >
<path style="stroke: none; stroke-width: 1; stroke-dasharray: none; stroke-linecap: butt; stroke-dashoffset: 0; stroke-linejoin: miter; stroke-miterlimit: 4; fill: rgb(255,255,255); fill-rule: nonzero; opacity: 1;" vector-effect="non-scaling-stroke"  transform=" translate(-231.83, -97.5)" d="M 236.015625 93.445313 C 233.410156 94.34375 232.695313 95.761719 232.324219 97.992188 C 232.027344 99.800781 230.253906 101.363281 229.160156 102.996094 C 227.21875 102.105469 227.382813 101.484375 228.308594 100.210938 C 229.296875 98.851563 229.453125 96.894531 230.402344 95.492188 C 231.339844 94.113281 232.78125 93.066406 234.113281 92.007813 C 234.238281 91.90625 235.136719 92.769531 236.015625 93.445313" stroke-linecap="round" />
</g>
<g transform="matrix(0.9 0 0 0.9 84.35 68.88)" id="Y3wqTmM44WNxzsItnv3WD"  >
<path style="stroke: none; stroke-width: 1; stroke-dasharray: none; stroke-linecap: butt; stroke-dashoffset: 0; stroke-linejoin: miter; stroke-miterlimit: 4; fill: rgb(255,255,255); fill-rule: nonzero; opacity: 1;" vector-effect="non-scaling-stroke"  transform=" translate(-243.46, -75.32)" d="M 241.488281 70.144531 L 242.855469 69.886719 C 243.023438 69.855469 243.1875 69.96875 243.21875 70.136719 L 243.398438 71.148438 C 243.429688 71.320313 243.601563 71.433594 243.773438 71.394531 L 245.109375 71.09375 L 245.316406 72.375 L 244.054688 72.605469 C 243.886719 72.640625 243.773438 72.800781 243.804688 72.96875 L 244.039063 74.21875 C 244.070313 74.382813 244.222656 74.492188 244.386719 74.46875 L 247.628906 74.027344 L 247.675781 75.078125 C 247.683594 75.234375 247.578125 75.367188 247.429688 75.398438 L 244.746094 75.945313 C 244.582031 75.980469 244.472656 76.140625 244.503906 76.304688 L 245.175781 80.1875 C 245.203125 80.351563 245.101563 80.507813 244.9375 80.546875 L 244.0625 80.742188 C 243.898438 80.78125 243.730469 80.675781 243.691406 80.507813 L 242.824219 76.652344 C 242.785156 76.488281 242.625 76.382813 242.460938 76.414063 L 239.875 76.921875 C 239.71875 76.953125 239.5625 76.859375 239.519531 76.707031 L 239.25 75.816406 C 239.199219 75.644531 239.308594 75.460938 239.488281 75.425781 L 241.863281 74.949219 C 242.027344 74.917969 242.136719 74.761719 242.109375 74.597656 L 241.902344 73.28125 C 241.875 73.105469 241.699219 72.988281 241.523438 73.027344 L 240.335938 73.300781 C 240.175781 73.335938 240.015625 73.246094 239.96875 73.089844 L 239.648438 72.023438 L 240.945313 71.804688 C 241.234375 71.753906 241.429688 71.472656 241.375 71.183594 L 241.242188 70.507813 C 241.207031 70.339844 241.320313 70.175781 241.488281 70.144531" stroke-linecap="round" />
</g>
</svg>